<svg width="870" height="170" viewBox="0 0 870 170" fill="none" xmlns="http://www.w3.org/2000/svg">
<mask id="path-1-outside-1_270_55" maskUnits="userSpaceOnUse" x="682.144" y="34.917" width="186" height="101" fill="black">
<rect fill="white" x="682.144" y="34.917" width="186" height="101"/>
<path d="M690.964 48.874C692.897 48.874 694.464 50.441 694.464 52.374V126.583C694.464 128.516 692.897 130.083 690.964 130.083C689.031 130.083 687.464 128.516 687.464 126.583V52.374C687.464 50.441 689.031 48.874 690.964 48.874ZM734.312 102.012C735.87 100.867 738.06 101.202 739.205 102.759L755.198 124.51C756.343 126.067 756.009 128.257 754.452 129.402C752.895 130.547 750.705 130.213 749.56 128.656L733.565 106.905C732.42 105.348 732.755 103.157 734.312 102.012ZM783.085 48.874C785.018 48.874 786.585 50.441 786.585 52.374V126.583C786.585 128.516 785.018 130.083 783.085 130.083C781.152 130.083 779.585 128.516 779.585 126.583V52.374C779.585 50.441 781.152 48.874 783.085 48.874ZM818.91 39.917C826.971 39.917 837.411 42.6916 846.108 49.3555C854.919 56.106 861.85 66.7891 862.709 82.2471C864.436 113.331 839.49 130.083 820.83 130.083H791.722C789.789 130.083 788.222 128.516 788.222 126.583C788.222 124.65 789.789 123.083 791.722 123.083H820.83C836.076 123.083 857.192 109.127 855.72 82.6348C854.979 69.3052 849.114 60.4764 841.852 54.9121C834.476 49.2612 825.563 46.917 818.91 46.917H782.766C780.833 46.917 779.266 45.35 779.266 43.417C779.266 41.4841 780.833 39.917 782.766 39.917H818.91ZM718.792 39.917C727.379 39.917 736.582 41.3008 743.733 45.9629C751.144 50.7939 755.878 58.8351 755.878 70.9258C755.878 83.3239 749.913 91.0555 742.309 95.499C734.935 99.8076 726.166 100.975 720.071 100.975H699.6C697.667 100.974 696.1 99.4075 696.1 97.4746C696.1 95.5418 697.667 93.9747 699.6 93.9746H720.071C725.491 93.9746 732.876 92.9032 738.777 89.4551C744.447 86.1418 748.878 80.5981 748.878 70.9258C748.878 60.9461 745.135 55.2327 739.911 51.8271C734.428 48.2529 726.838 46.917 718.792 46.917H690.644C688.711 46.917 687.144 45.35 687.144 43.417C687.144 41.4841 688.711 39.917 690.644 39.917H718.792Z"/>
</mask>
<path d="M690.964 48.874C692.897 48.874 694.464 50.441 694.464 52.374V126.583C694.464 128.516 692.897 130.083 690.964 130.083C689.031 130.083 687.464 128.516 687.464 126.583V52.374C687.464 50.441 689.031 48.874 690.964 48.874ZM734.312 102.012C735.87 100.867 738.06 101.202 739.205 102.759L755.198 124.51C756.343 126.067 756.009 128.257 754.452 129.402C752.895 130.547 750.705 130.213 749.56 128.656L733.565 106.905C732.42 105.348 732.755 103.157 734.312 102.012ZM783.085 48.874C785.018 48.874 786.585 50.441 786.585 52.374V126.583C786.585 128.516 785.018 130.083 783.085 130.083C781.152 130.083 779.585 128.516 779.585 126.583V52.374C779.585 50.441 781.152 48.874 783.085 48.874ZM818.91 39.917C826.971 39.917 837.411 42.6916 846.108 49.3555C854.919 56.106 861.85 66.7891 862.709 82.2471C864.436 113.331 839.49 130.083 820.83 130.083H791.722C789.789 130.083 788.222 128.516 788.222 126.583C788.222 124.65 789.789 123.083 791.722 123.083H820.83C836.076 123.083 857.192 109.127 855.72 82.6348C854.979 69.3052 849.114 60.4764 841.852 54.9121C834.476 49.2612 825.563 46.917 818.91 46.917H782.766C780.833 46.917 779.266 45.35 779.266 43.417C779.266 41.4841 780.833 39.917 782.766 39.917H818.91ZM718.792 39.917C727.379 39.917 736.582 41.3008 743.733 45.9629C751.144 50.7939 755.878 58.8351 755.878 70.9258C755.878 83.3239 749.913 91.0555 742.309 95.499C734.935 99.8076 726.166 100.975 720.071 100.975H699.6C697.667 100.974 696.1 99.4075 696.1 97.4746C696.1 95.5418 697.667 93.9747 699.6 93.9746H720.071C725.491 93.9746 732.876 92.9032 738.777 89.4551C744.447 86.1418 748.878 80.5981 748.878 70.9258C748.878 60.9461 745.135 55.2327 739.911 51.8271C734.428 48.2529 726.838 46.917 718.792 46.917H690.644C688.711 46.917 687.144 45.35 687.144 43.417C687.144 41.4841 688.711 39.917 690.644 39.917H718.792Z" fill="black" fill-opacity="0.01"/>
<path d="M694.464 126.583L699.464 126.583V126.583H694.464ZM687.464 126.583L682.464 126.583L682.464 126.583L687.464 126.583ZM734.312 102.012L731.351 97.9831L731.351 97.9835L734.312 102.012ZM739.205 102.759L743.233 99.7969L743.233 99.7968L739.205 102.759ZM755.198 124.51L759.227 121.548L759.227 121.548L755.198 124.51ZM754.452 129.402L757.414 133.431L757.414 133.431L754.452 129.402ZM749.56 128.656L745.531 131.618L745.532 131.619L749.56 128.656ZM733.565 106.905L729.537 109.867L729.537 109.867L733.565 106.905ZM786.585 126.583L791.585 126.583V126.583H786.585ZM779.585 126.583L774.585 126.583L774.585 126.583L779.585 126.583ZM818.91 39.917L818.91 44.917L818.91 44.917L818.91 39.917ZM846.108 49.3555L849.149 45.3865L849.149 45.3865L846.108 49.3555ZM862.709 82.2471L867.701 81.9698L867.701 81.9697L862.709 82.2471ZM820.83 130.083L820.83 135.083L820.83 135.083L820.83 130.083ZM791.722 130.083L791.721 135.083H791.722V130.083ZM788.222 126.583L783.222 126.583L783.222 126.584L788.222 126.583ZM791.722 123.083L791.722 118.083L791.721 118.083L791.722 123.083ZM820.83 123.083L820.83 128.083L820.83 128.083L820.83 123.083ZM855.72 82.6348L860.712 82.3574L860.712 82.3574L855.72 82.6348ZM841.852 54.9121L844.893 50.9431L844.892 50.9431L841.852 54.9121ZM818.91 46.917L818.91 51.917L818.91 51.917L818.91 46.917ZM782.766 46.917L782.766 51.917H782.766V46.917ZM779.266 43.417L774.266 43.4166L774.266 43.417L779.266 43.417ZM782.766 39.917V44.917V39.917ZM718.792 39.917L718.792 34.917H718.792V39.917ZM743.733 45.9629L746.464 41.7743L746.464 41.7743L743.733 45.9629ZM755.878 70.9258L760.878 70.9258L760.878 70.9258L755.878 70.9258ZM742.309 95.499L744.831 99.8161L744.831 99.816L742.309 95.499ZM699.6 100.975L699.599 105.975H699.6V100.975ZM696.1 97.4746L691.1 97.4742V97.4746H696.1ZM699.6 93.9746L699.6 88.9746L699.599 88.9746L699.6 93.9746ZM738.777 89.4551L741.3 93.7721L741.3 93.7721L738.777 89.4551ZM748.878 70.9258L753.878 70.9258L753.878 70.9258L748.878 70.9258ZM739.911 51.8271L742.642 47.6386L742.642 47.6386L739.911 51.8271ZM718.792 46.917L718.792 41.917H718.792V46.917ZM690.644 46.917L690.644 41.917L690.644 46.917ZM687.144 43.417L682.144 43.4167L682.144 43.417L687.144 43.417ZM690.644 39.917L690.644 34.917L690.644 34.917L690.644 39.917ZM690.964 48.874V53.874C690.135 53.874 689.464 53.2025 689.464 52.374H694.464H699.464C699.464 47.6796 695.658 43.874 690.964 43.874V48.874ZM694.464 52.374H689.464V126.583H694.464H699.464V52.374H694.464ZM694.464 126.583L689.464 126.583C689.464 125.755 690.135 125.083 690.964 125.083V130.083V135.083C695.659 135.083 699.464 131.277 699.464 126.583L694.464 126.583ZM690.964 130.083V125.083C691.793 125.083 692.464 125.755 692.464 126.583L687.464 126.583L682.464 126.583C682.464 131.277 686.269 135.083 690.964 135.083V130.083ZM687.464 126.583H692.464V52.374H687.464H682.464V126.583H687.464ZM687.464 52.374H692.464C692.464 53.2025 691.792 53.874 690.964 53.874V48.874V43.874C686.269 43.874 682.464 47.6796 682.464 52.374H687.464ZM734.312 102.012L737.274 106.04C736.606 106.532 735.667 106.387 735.177 105.721L739.205 102.759L743.233 99.7968C740.453 96.016 735.134 95.2022 731.351 97.9831L734.312 102.012ZM739.205 102.759L735.177 105.721L751.17 127.472L755.198 124.51L759.227 121.548L743.233 99.7969L739.205 102.759ZM755.198 124.51L751.17 127.472C750.68 126.805 750.822 125.865 751.49 125.374L754.452 129.402L757.414 133.431C761.197 130.649 762.007 125.329 759.227 121.548L755.198 124.51ZM754.452 129.402L751.49 125.374C752.158 124.883 753.097 125.027 753.588 125.694L749.56 128.656L745.532 131.619C748.313 135.4 753.632 136.211 757.414 133.431L754.452 129.402ZM749.56 128.656L753.588 125.694L737.594 103.943L733.565 106.905L729.537 109.867L745.531 131.618L749.56 128.656ZM733.565 106.905L737.594 103.943C738.085 104.612 737.941 105.55 737.274 106.04L734.312 102.012L731.351 97.9835C727.57 100.764 726.755 106.084 729.537 109.867L733.565 106.905ZM783.085 48.874V53.874C782.257 53.874 781.585 53.2025 781.585 52.374H786.585H791.585C791.585 47.6796 787.779 43.874 783.085 43.874V48.874ZM786.585 52.374H781.585V126.583H786.585H791.585V52.374H786.585ZM786.585 126.583L781.585 126.583C781.585 125.755 782.256 125.083 783.085 125.083V130.083V135.083C787.78 135.083 791.585 131.277 791.585 126.583L786.585 126.583ZM783.085 130.083V125.083C783.914 125.083 784.585 125.755 784.585 126.583L779.585 126.583L774.585 126.583C774.585 131.277 778.39 135.083 783.085 135.083V130.083ZM779.585 126.583H784.585V52.374H779.585H774.585V126.583H779.585ZM779.585 52.374H784.585C784.585 53.2025 783.913 53.874 783.085 53.874V48.874V43.874C778.391 43.874 774.585 47.6796 774.585 52.374H779.585ZM818.91 39.917L818.91 44.917C825.966 44.917 835.314 47.3843 843.068 53.3245L846.108 49.3555L849.149 45.3865C839.507 37.9989 827.976 34.917 818.91 34.917L818.91 39.917ZM846.108 49.3555L843.067 53.3244C850.773 59.2281 856.942 68.5872 857.717 82.5244L862.709 82.2471L867.701 81.9697C866.758 64.9909 859.066 52.984 849.149 45.3865L846.108 49.3555ZM862.709 82.2471L857.717 82.5244C859.261 110.318 837.063 125.083 820.83 125.083L820.83 130.083L820.83 135.083C841.917 135.083 869.611 116.343 867.701 81.9698L862.709 82.2471ZM820.83 130.083V125.083H791.722V130.083V135.083H820.83V130.083ZM791.722 130.083L791.722 125.083C792.551 125.083 793.222 125.754 793.222 126.582L788.222 126.583L783.222 126.584C783.222 131.277 787.027 135.083 791.721 135.083L791.722 130.083ZM788.222 126.583L793.222 126.583C793.222 127.412 792.55 128.083 791.722 128.083L791.722 123.083L791.721 118.083C787.027 118.083 783.222 121.889 783.222 126.583L788.222 126.583ZM791.722 123.083V128.083H820.83V123.083V118.083H791.722V123.083ZM820.83 123.083L820.83 128.083C838.528 128.083 862.365 112.117 860.712 82.3574L855.72 82.6348L850.727 82.9121C852.018 106.137 833.623 118.083 820.83 118.083L820.83 123.083ZM855.72 82.6348L860.712 82.3574C859.887 67.5079 853.261 57.3549 844.893 50.9431L841.852 54.9121L838.811 58.8811C844.967 63.5978 850.071 71.1025 850.727 82.9122L855.72 82.6348ZM841.852 54.9121L844.892 50.9431C836.573 44.5689 826.569 41.917 818.91 41.917L818.91 46.917L818.91 51.917C824.557 51.917 832.379 53.9536 838.811 58.8811L841.852 54.9121ZM818.91 46.917V41.917H782.766V46.917V51.917H818.91V46.917ZM782.766 46.917L782.766 41.917C783.594 41.917 784.266 42.5886 784.266 43.417L779.266 43.417L774.266 43.417C774.266 48.1114 778.071 51.917 782.766 51.917L782.766 46.917ZM779.266 43.417L784.266 43.4173C784.266 44.2453 783.594 44.917 782.766 44.917L782.766 39.917L782.766 34.917C778.071 34.917 774.266 38.723 774.266 43.4166L779.266 43.417ZM782.766 39.917V44.917H818.91V39.917V34.917H782.766V39.917ZM718.792 39.917L718.792 44.917C726.992 44.917 735.043 46.2664 741.003 50.1515L743.733 45.9629L746.464 41.7743C738.12 36.3352 727.765 34.917 718.792 34.917L718.792 39.917ZM743.733 45.9629L741.003 50.1515C746.85 53.9631 750.878 60.3405 750.878 70.9258L755.878 70.9258L760.878 70.9258C760.878 57.3296 755.438 47.6247 746.464 41.7743L743.733 45.9629ZM755.878 70.9258L750.878 70.9258C750.878 81.3746 746.011 87.5446 739.786 91.182L742.309 95.499L744.831 99.816C753.815 94.5664 760.878 85.2732 760.878 70.9258L755.878 70.9258ZM742.309 95.499L739.786 91.182C733.465 94.8758 725.685 95.9746 720.071 95.9746V100.975V105.975C726.648 105.975 736.405 104.739 744.831 99.8161L742.309 95.499ZM720.071 100.975V95.9746H699.6V100.975V105.975H720.071V100.975ZM699.6 100.975L699.6 95.9746C700.428 95.9747 701.1 96.6458 701.1 97.4746H696.1H691.1C691.1 102.169 694.906 105.974 699.599 105.975L699.6 100.975ZM696.1 97.4746L701.1 97.475C701.1 98.3033 700.428 98.9746 699.6 98.9746L699.6 93.9746L699.599 88.9746C694.905 88.9749 691.1 92.7804 691.1 97.4742L696.1 97.4746ZM699.6 93.9746V98.9746H720.071V93.9746V88.9746H699.6V93.9746ZM720.071 93.9746V98.9746C725.974 98.9746 734.347 97.8349 741.3 93.7721L738.777 89.4551L736.255 85.1381C731.406 87.9715 725.009 88.9746 720.071 88.9746V93.9746ZM738.777 89.4551L741.3 93.7721C744.7 91.7855 747.901 89.0246 750.234 85.159C752.578 81.2762 753.878 76.5564 753.878 70.9258L748.878 70.9258L743.878 70.9258C743.878 74.9676 742.962 77.8557 741.673 79.9912C740.374 82.1438 738.525 83.8114 736.255 85.1381L738.777 89.4551ZM748.878 70.9258L753.878 70.9258C753.878 59.4353 749.425 52.0608 742.642 47.6386L739.911 51.8271L737.181 56.0157C740.845 58.4045 743.878 62.4569 743.878 70.9258L748.878 70.9258ZM739.911 51.8271L742.642 47.6386C735.967 43.2872 727.224 41.917 718.792 41.917L718.792 46.917L718.792 51.917C726.452 51.917 732.89 53.2186 737.181 56.0157L739.911 51.8271ZM718.792 46.917V41.917H690.644V46.917V51.917H718.792V46.917ZM690.644 46.917L690.644 41.917C691.472 41.917 692.144 42.5886 692.144 43.417L687.144 43.417L682.144 43.417C682.144 48.1114 685.949 51.917 690.644 51.917L690.644 46.917ZM687.144 43.417L692.144 43.4173C692.143 44.2453 691.472 44.917 690.644 44.917L690.644 39.917L690.644 34.917C685.949 34.917 682.144 38.7229 682.144 43.4167L687.144 43.417ZM690.644 39.917V44.917H718.792V39.917V34.917H690.644V39.917Z" fill="white" mask="url(#path-1-outside-1_270_55)"/>
<mask id="path-3-outside-2_270_55" maskUnits="userSpaceOnUse" x="1.20508" y="32.5" width="667" height="128" fill="black">
<rect fill="white" x="1.20508" y="32.5" width="667" height="128"/>
<path d="M42.3164 131.292C35.4044 131.292 29.3031 130.055 24.0124 127.58C18.7217 125.105 14.5831 121.564 11.5964 116.956C8.60974 112.348 7.1164 106.801 7.1164 100.316V96.732H23.7564V100.316C23.7564 105.692 25.4204 109.745 28.7484 112.476C32.0764 115.121 36.5991 116.444 42.3164 116.444C48.1191 116.444 52.4284 115.292 55.2444 112.988C58.1457 110.684 59.5964 107.74 59.5964 104.156C59.5964 101.681 58.8711 99.676 57.4204 98.14C56.0551 96.604 54.0071 95.3667 51.2764 94.428C48.6311 93.404 45.3884 92.4653 41.5484 91.612L38.6044 90.972C32.4604 89.6067 27.1697 87.9 22.7324 85.852C18.3804 83.7187 15.0097 80.9453 12.6204 77.532C10.3164 74.1187 9.1644 69.6813 9.1644 64.22C9.1644 58.7587 10.4444 54.108 13.0044 50.268C15.6497 46.3427 19.3191 43.356 24.0124 41.308C28.7911 39.1747 34.3804 38.108 40.7804 38.108C47.1804 38.108 52.8551 39.2173 57.8044 41.436C62.8391 43.5693 66.7644 46.812 69.5804 51.164C72.4817 55.4307 73.9324 60.8067 73.9324 67.292V71.132H57.2924V67.292C57.2924 63.8787 56.6097 61.148 55.2444 59.1C53.9644 56.9667 52.0871 55.4307 49.6124 54.492C47.1377 53.468 44.1937 52.956 40.7804 52.956C35.6604 52.956 31.8631 53.9373 29.3884 55.9C26.9991 57.7773 25.8044 60.38 25.8044 63.708C25.8044 65.9267 26.3591 67.804 27.4684 69.34C28.6631 70.876 30.4124 72.156 32.7164 73.18C35.0204 74.204 37.9644 75.1 41.5484 75.868L44.4924 76.508C50.8924 77.8733 56.4391 79.6227 61.1324 81.756C65.9111 83.8893 69.6231 86.7053 72.2684 90.204C74.9137 93.7027 76.2364 98.1827 76.2364 103.644C76.2364 109.105 74.8284 113.927 72.0124 118.108C69.2817 122.204 65.3564 125.447 60.2364 127.836C55.2017 130.14 49.2284 131.292 42.3164 131.292ZM119.557 131.292C113.243 131.292 107.568 130.012 102.533 127.452C97.4987 124.892 93.5307 121.18 90.6294 116.316C87.7281 111.452 86.2774 105.607 86.2774 98.78V96.732C86.2774 89.9053 87.7281 84.06 90.6294 79.196C93.5307 74.332 97.4987 70.62 102.533 68.06C107.568 65.5 113.243 64.22 119.557 64.22C125.872 64.22 131.547 65.5 136.581 68.06C141.616 70.62 145.584 74.332 148.485 79.196C151.387 84.06 152.837 89.9053 152.837 96.732V98.78C152.837 105.607 151.387 111.452 148.485 116.316C145.584 121.18 141.616 124.892 136.581 127.452C131.547 130.012 125.872 131.292 119.557 131.292ZM119.557 116.956C124.507 116.956 128.603 115.377 131.845 112.22C135.088 108.977 136.709 104.369 136.709 98.396V97.116C136.709 91.1427 135.088 86.5773 131.845 83.42C128.688 80.1773 124.592 78.556 119.557 78.556C114.608 78.556 110.512 80.1773 107.269 83.42C104.027 86.5773 102.405 91.1427 102.405 97.116V98.396C102.405 104.369 104.027 108.977 107.269 112.22C110.512 115.377 114.608 116.956 119.557 116.956ZM167.724 129.5V66.012H183.596V72.924H185.9C187.01 70.7907 188.844 68.956 191.404 67.42C193.964 65.7987 197.335 64.988 201.516 64.988C206.039 64.988 209.666 65.884 212.396 67.676C215.127 69.3827 217.218 71.644 218.668 74.46H220.972C222.423 71.7293 224.471 69.468 227.116 67.676C229.762 65.884 233.516 64.988 238.38 64.988C242.306 64.988 245.847 65.8413 249.004 67.548C252.247 69.1693 254.807 71.6867 256.684 75.1C258.647 78.428 259.628 82.652 259.628 87.772V129.5H243.5V88.924C243.5 85.4253 242.604 82.8227 240.812 81.116C239.02 79.324 236.503 78.428 233.26 78.428C229.591 78.428 226.732 79.6227 224.684 82.012C222.722 84.316 221.74 87.644 221.74 91.996V129.5H205.612V88.924C205.612 85.4253 204.716 82.8227 202.924 81.116C201.132 79.324 198.615 78.428 195.372 78.428C191.703 78.428 188.844 79.6227 186.796 82.012C184.834 84.316 183.852 87.644 183.852 91.996V129.5H167.724ZM305.902 131.292C299.588 131.292 293.998 129.969 289.134 127.324C284.356 124.593 280.601 120.796 277.87 115.932C275.225 110.983 273.902 105.18 273.902 98.524V96.988C273.902 90.332 275.225 84.572 277.87 79.708C280.516 74.7587 284.228 70.9613 289.006 68.316C293.785 65.5853 299.332 64.22 305.646 64.22C311.876 64.22 317.294 65.628 321.902 68.444C326.51 71.1747 330.094 75.0147 332.654 79.964C335.214 84.828 336.494 90.5027 336.494 96.988V102.492H290.286C290.457 106.844 292.078 110.385 295.15 113.116C298.222 115.847 301.977 117.212 306.414 117.212C310.937 117.212 314.265 116.231 316.398 114.268C318.532 112.305 320.153 110.129 321.262 107.74L334.446 114.652C333.252 116.871 331.502 119.303 329.198 121.948C326.98 124.508 323.993 126.727 320.238 128.604C316.484 130.396 311.705 131.292 305.902 131.292ZM290.414 90.46H320.11C319.769 86.7907 318.276 83.8467 315.63 81.628C313.07 79.4093 309.7 78.3 305.518 78.3C301.166 78.3 297.71 79.4093 295.15 81.628C292.59 83.8467 291.012 86.7907 290.414 90.46ZM373.169 129.5C368.988 129.5 365.575 128.22 362.929 125.66C360.369 123.015 359.089 119.516 359.089 115.164V79.324H343.217V66.012H359.089V46.3H375.217V66.012H392.625V79.324H375.217V112.348C375.217 114.908 376.412 116.188 378.801 116.188H391.089V129.5H373.169ZM407.224 129.5V39.9H423.352V73.82H425.656C426.339 72.4547 427.406 71.0893 428.856 69.724C430.307 68.3587 432.227 67.2493 434.616 66.396C437.091 65.4573 440.206 64.988 443.96 64.988C448.91 64.988 453.219 66.14 456.888 68.444C460.643 70.6627 463.544 73.7773 465.592 77.788C467.64 81.7133 468.664 86.3213 468.664 91.612V129.5H452.536V92.892C452.536 88.1133 451.342 84.5293 448.952 82.14C446.648 79.7507 443.32 78.556 438.968 78.556C434.019 78.556 430.179 80.22 427.448 83.548C424.718 86.7907 423.352 91.356 423.352 97.244V129.5H407.224ZM486.099 129.5V66.012H502.227V129.5H486.099ZM494.163 58.588C491.262 58.588 488.787 57.6493 486.739 55.772C484.777 53.8947 483.795 51.42 483.795 48.348C483.795 45.276 484.777 42.8013 486.739 40.924C488.787 39.0467 491.262 38.108 494.163 38.108C497.15 38.108 499.625 39.0467 501.587 40.924C503.55 42.8013 504.531 45.276 504.531 48.348C504.531 51.42 503.55 53.8947 501.587 55.772C499.625 57.6493 497.15 58.588 494.163 58.588ZM520.099 129.5V66.012H535.971V74.332H538.275C539.299 72.1133 541.219 70.0227 544.035 68.06C546.851 66.012 551.118 64.988 556.835 64.988C561.785 64.988 566.094 66.14 569.763 68.444C573.518 70.6627 576.419 73.7773 578.467 77.788C580.515 81.7133 581.539 86.3213 581.539 91.612V129.5H565.411V92.892C565.411 88.1133 564.217 84.5293 561.827 82.14C559.523 79.7507 556.195 78.556 551.843 78.556C546.894 78.556 543.054 80.22 540.323 83.548C537.593 86.7907 536.227 91.356 536.227 97.244V129.5H520.099ZM595.902 98.012V95.964C595.902 89.308 597.225 83.6333 599.87 78.94C602.516 74.1613 606.014 70.5347 610.366 68.06C614.804 65.5 619.625 64.22 624.83 64.22C630.633 64.22 635.028 65.244 638.014 67.292C641.001 69.34 643.177 71.4733 644.542 73.692H646.846V66.012H662.718V140.764C662.718 145.116 661.438 148.572 658.878 151.132C656.318 153.777 652.905 155.1 648.638 155.1H606.142V141.02H643.006C645.396 141.02 646.59 139.74 646.59 137.18V120.668H644.286C643.433 122.033 642.238 123.441 640.702 124.892C639.166 126.257 637.118 127.409 634.558 128.348C631.998 129.287 628.756 129.756 624.83 129.756C619.625 129.756 614.804 128.519 610.366 126.044C606.014 123.484 602.516 119.857 599.87 115.164C597.225 110.385 595.902 104.668 595.902 98.012ZM629.438 115.676C634.388 115.676 638.526 114.097 641.854 110.94C645.182 107.783 646.846 103.345 646.846 97.628V96.348C646.846 90.5453 645.182 86.108 641.854 83.036C638.612 79.8787 634.473 78.3 629.438 78.3C624.489 78.3 620.35 79.8787 617.022 83.036C613.694 86.108 612.03 90.5453 612.03 96.348V97.628C612.03 103.345 613.694 107.783 617.022 110.94C620.35 114.097 624.489 115.676 629.438 115.676Z"/>
</mask>
<path d="M42.3164 131.292C35.4044 131.292 29.3031 130.055 24.0124 127.58C18.7217 125.105 14.5831 121.564 11.5964 116.956C8.60974 112.348 7.1164 106.801 7.1164 100.316V96.732H23.7564V100.316C23.7564 105.692 25.4204 109.745 28.7484 112.476C32.0764 115.121 36.5991 116.444 42.3164 116.444C48.1191 116.444 52.4284 115.292 55.2444 112.988C58.1457 110.684 59.5964 107.74 59.5964 104.156C59.5964 101.681 58.8711 99.676 57.4204 98.14C56.0551 96.604 54.0071 95.3667 51.2764 94.428C48.6311 93.404 45.3884 92.4653 41.5484 91.612L38.6044 90.972C32.4604 89.6067 27.1697 87.9 22.7324 85.852C18.3804 83.7187 15.0097 80.9453 12.6204 77.532C10.3164 74.1187 9.1644 69.6813 9.1644 64.22C9.1644 58.7587 10.4444 54.108 13.0044 50.268C15.6497 46.3427 19.3191 43.356 24.0124 41.308C28.7911 39.1747 34.3804 38.108 40.7804 38.108C47.1804 38.108 52.8551 39.2173 57.8044 41.436C62.8391 43.5693 66.7644 46.812 69.5804 51.164C72.4817 55.4307 73.9324 60.8067 73.9324 67.292V71.132H57.2924V67.292C57.2924 63.8787 56.6097 61.148 55.2444 59.1C53.9644 56.9667 52.0871 55.4307 49.6124 54.492C47.1377 53.468 44.1937 52.956 40.7804 52.956C35.6604 52.956 31.8631 53.9373 29.3884 55.9C26.9991 57.7773 25.8044 60.38 25.8044 63.708C25.8044 65.9267 26.3591 67.804 27.4684 69.34C28.6631 70.876 30.4124 72.156 32.7164 73.18C35.0204 74.204 37.9644 75.1 41.5484 75.868L44.4924 76.508C50.8924 77.8733 56.4391 79.6227 61.1324 81.756C65.9111 83.8893 69.6231 86.7053 72.2684 90.204C74.9137 93.7027 76.2364 98.1827 76.2364 103.644C76.2364 109.105 74.8284 113.927 72.0124 118.108C69.2817 122.204 65.3564 125.447 60.2364 127.836C55.2017 130.14 49.2284 131.292 42.3164 131.292ZM119.557 131.292C113.243 131.292 107.568 130.012 102.533 127.452C97.4987 124.892 93.5307 121.18 90.6294 116.316C87.7281 111.452 86.2774 105.607 86.2774 98.78V96.732C86.2774 89.9053 87.7281 84.06 90.6294 79.196C93.5307 74.332 97.4987 70.62 102.533 68.06C107.568 65.5 113.243 64.22 119.557 64.22C125.872 64.22 131.547 65.5 136.581 68.06C141.616 70.62 145.584 74.332 148.485 79.196C151.387 84.06 152.837 89.9053 152.837 96.732V98.78C152.837 105.607 151.387 111.452 148.485 116.316C145.584 121.18 141.616 124.892 136.581 127.452C131.547 130.012 125.872 131.292 119.557 131.292ZM119.557 116.956C124.507 116.956 128.603 115.377 131.845 112.22C135.088 108.977 136.709 104.369 136.709 98.396V97.116C136.709 91.1427 135.088 86.5773 131.845 83.42C128.688 80.1773 124.592 78.556 119.557 78.556C114.608 78.556 110.512 80.1773 107.269 83.42C104.027 86.5773 102.405 91.1427 102.405 97.116V98.396C102.405 104.369 104.027 108.977 107.269 112.22C110.512 115.377 114.608 116.956 119.557 116.956ZM167.724 129.5V66.012H183.596V72.924H185.9C187.01 70.7907 188.844 68.956 191.404 67.42C193.964 65.7987 197.335 64.988 201.516 64.988C206.039 64.988 209.666 65.884 212.396 67.676C215.127 69.3827 217.218 71.644 218.668 74.46H220.972C222.423 71.7293 224.471 69.468 227.116 67.676C229.762 65.884 233.516 64.988 238.38 64.988C242.306 64.988 245.847 65.8413 249.004 67.548C252.247 69.1693 254.807 71.6867 256.684 75.1C258.647 78.428 259.628 82.652 259.628 87.772V129.5H243.5V88.924C243.5 85.4253 242.604 82.8227 240.812 81.116C239.02 79.324 236.503 78.428 233.26 78.428C229.591 78.428 226.732 79.6227 224.684 82.012C222.722 84.316 221.74 87.644 221.74 91.996V129.5H205.612V88.924C205.612 85.4253 204.716 82.8227 202.924 81.116C201.132 79.324 198.615 78.428 195.372 78.428C191.703 78.428 188.844 79.6227 186.796 82.012C184.834 84.316 183.852 87.644 183.852 91.996V129.5H167.724ZM305.902 131.292C299.588 131.292 293.998 129.969 289.134 127.324C284.356 124.593 280.601 120.796 277.87 115.932C275.225 110.983 273.902 105.18 273.902 98.524V96.988C273.902 90.332 275.225 84.572 277.87 79.708C280.516 74.7587 284.228 70.9613 289.006 68.316C293.785 65.5853 299.332 64.22 305.646 64.22C311.876 64.22 317.294 65.628 321.902 68.444C326.51 71.1747 330.094 75.0147 332.654 79.964C335.214 84.828 336.494 90.5027 336.494 96.988V102.492H290.286C290.457 106.844 292.078 110.385 295.15 113.116C298.222 115.847 301.977 117.212 306.414 117.212C310.937 117.212 314.265 116.231 316.398 114.268C318.532 112.305 320.153 110.129 321.262 107.74L334.446 114.652C333.252 116.871 331.502 119.303 329.198 121.948C326.98 124.508 323.993 126.727 320.238 128.604C316.484 130.396 311.705 131.292 305.902 131.292ZM290.414 90.46H320.11C319.769 86.7907 318.276 83.8467 315.63 81.628C313.07 79.4093 309.7 78.3 305.518 78.3C301.166 78.3 297.71 79.4093 295.15 81.628C292.59 83.8467 291.012 86.7907 290.414 90.46ZM373.169 129.5C368.988 129.5 365.575 128.22 362.929 125.66C360.369 123.015 359.089 119.516 359.089 115.164V79.324H343.217V66.012H359.089V46.3H375.217V66.012H392.625V79.324H375.217V112.348C375.217 114.908 376.412 116.188 378.801 116.188H391.089V129.5H373.169ZM407.224 129.5V39.9H423.352V73.82H425.656C426.339 72.4547 427.406 71.0893 428.856 69.724C430.307 68.3587 432.227 67.2493 434.616 66.396C437.091 65.4573 440.206 64.988 443.96 64.988C448.91 64.988 453.219 66.14 456.888 68.444C460.643 70.6627 463.544 73.7773 465.592 77.788C467.64 81.7133 468.664 86.3213 468.664 91.612V129.5H452.536V92.892C452.536 88.1133 451.342 84.5293 448.952 82.14C446.648 79.7507 443.32 78.556 438.968 78.556C434.019 78.556 430.179 80.22 427.448 83.548C424.718 86.7907 423.352 91.356 423.352 97.244V129.5H407.224ZM486.099 129.5V66.012H502.227V129.5H486.099ZM494.163 58.588C491.262 58.588 488.787 57.6493 486.739 55.772C484.777 53.8947 483.795 51.42 483.795 48.348C483.795 45.276 484.777 42.8013 486.739 40.924C488.787 39.0467 491.262 38.108 494.163 38.108C497.15 38.108 499.625 39.0467 501.587 40.924C503.55 42.8013 504.531 45.276 504.531 48.348C504.531 51.42 503.55 53.8947 501.587 55.772C499.625 57.6493 497.15 58.588 494.163 58.588ZM520.099 129.5V66.012H535.971V74.332H538.275C539.299 72.1133 541.219 70.0227 544.035 68.06C546.851 66.012 551.118 64.988 556.835 64.988C561.785 64.988 566.094 66.14 569.763 68.444C573.518 70.6627 576.419 73.7773 578.467 77.788C580.515 81.7133 581.539 86.3213 581.539 91.612V129.5H565.411V92.892C565.411 88.1133 564.217 84.5293 561.827 82.14C559.523 79.7507 556.195 78.556 551.843 78.556C546.894 78.556 543.054 80.22 540.323 83.548C537.593 86.7907 536.227 91.356 536.227 97.244V129.5H520.099ZM595.902 98.012V95.964C595.902 89.308 597.225 83.6333 599.87 78.94C602.516 74.1613 606.014 70.5347 610.366 68.06C614.804 65.5 619.625 64.22 624.83 64.22C630.633 64.22 635.028 65.244 638.014 67.292C641.001 69.34 643.177 71.4733 644.542 73.692H646.846V66.012H662.718V140.764C662.718 145.116 661.438 148.572 658.878 151.132C656.318 153.777 652.905 155.1 648.638 155.1H606.142V141.02H643.006C645.396 141.02 646.59 139.74 646.59 137.18V120.668H644.286C643.433 122.033 642.238 123.441 640.702 124.892C639.166 126.257 637.118 127.409 634.558 128.348C631.998 129.287 628.756 129.756 624.83 129.756C619.625 129.756 614.804 128.519 610.366 126.044C606.014 123.484 602.516 119.857 599.87 115.164C597.225 110.385 595.902 104.668 595.902 98.012ZM629.438 115.676C634.388 115.676 638.526 114.097 641.854 110.94C645.182 107.783 646.846 103.345 646.846 97.628V96.348C646.846 90.5453 645.182 86.108 641.854 83.036C638.612 79.8787 634.473 78.3 629.438 78.3C624.489 78.3 620.35 79.8787 617.022 83.036C613.694 86.108 612.03 90.5453 612.03 96.348V97.628C612.03 103.345 613.694 107.783 617.022 110.94C620.35 114.097 624.489 115.676 629.438 115.676Z" fill="black" fill-opacity="0.01"/>
<path d="M24.0124 127.58L21.894 132.109L21.894 132.109L24.0124 127.58ZM11.5964 116.956L15.7922 114.237L15.7922 114.237L11.5964 116.956ZM7.1164 96.732V91.732H2.1164V96.732H7.1164ZM23.7564 96.732H28.7564V91.732H23.7564V96.732ZM28.7484 112.476L25.5768 116.341L25.6068 116.366L25.6372 116.39L28.7484 112.476ZM55.2444 112.988L52.135 109.072L52.1064 109.095L52.0782 109.118L55.2444 112.988ZM57.4204 98.14L53.6834 101.462L53.7335 101.518L53.7853 101.573L57.4204 98.14ZM51.2764 94.428L49.4714 99.0908L49.5606 99.1254L49.651 99.1564L51.2764 94.428ZM41.5484 91.612L42.6331 86.7311L42.6218 86.7286L42.6106 86.7261L41.5484 91.612ZM38.6044 90.972L37.5198 95.8529L37.531 95.8554L37.5423 95.8579L38.6044 90.972ZM22.7324 85.852L20.5316 90.3416L20.5841 90.3673L20.6371 90.3918L22.7324 85.852ZM12.6204 77.532L8.47616 80.3294L8.49991 80.3645L8.52425 80.3993L12.6204 77.532ZM13.0044 50.268L8.85807 47.4737L8.85109 47.4841L8.84415 47.4945L13.0044 50.268ZM24.0124 41.308L26.0121 45.8907L26.0314 45.8823L26.0507 45.8737L24.0124 41.308ZM57.8044 41.436L55.7591 45.9985L55.8062 46.0196L55.8537 46.0398L57.8044 41.436ZM69.5804 51.164L65.3826 53.8802L65.4136 53.9283L65.4458 53.9755L69.5804 51.164ZM73.9324 71.132V76.132H78.9324V71.132H73.9324ZM57.2924 71.132H52.2924V76.132H57.2924V71.132ZM55.2444 59.1L50.9569 61.6725L51.0182 61.7745L51.0842 61.8735L55.2444 59.1ZM49.6124 54.492L47.7006 59.1121L47.7695 59.1406L47.8391 59.167L49.6124 54.492ZM29.3884 55.9L32.4775 59.8316L32.4865 59.8246L32.4954 59.8175L29.3884 55.9ZM27.4684 69.34L23.415 72.2674L23.4671 72.3395L23.5216 72.4097L27.4684 69.34ZM41.5484 75.868L42.6106 70.9821L42.6033 70.9805L42.5961 70.979L41.5484 75.868ZM44.4924 76.508L43.4303 81.3939L43.4397 81.3959L43.4492 81.398L44.4924 76.508ZM61.1324 81.756L59.0634 86.3078L59.0787 86.3148L59.0942 86.3217L61.1324 81.756ZM72.2684 90.204L76.2567 87.1885L76.2567 87.1885L72.2684 90.204ZM72.0124 118.108L67.8652 115.315L67.8587 115.325L67.8522 115.334L72.0124 118.108ZM60.2364 127.836L62.317 132.383L62.334 132.375L62.3508 132.367L60.2364 127.836ZM42.3164 131.292V126.292C36.0037 126.292 30.6477 125.164 26.1308 123.051L24.0124 127.58L21.894 132.109C27.9584 134.946 34.8052 136.292 42.3164 136.292V131.292ZM24.0124 127.58L26.1308 123.051C21.632 120.947 18.2367 118.008 15.7922 114.237L11.5964 116.956L7.40064 119.675C10.9295 125.12 15.8115 129.264 21.894 132.109L24.0124 127.58ZM11.5964 116.956L15.7922 114.237C13.4194 110.576 12.1164 106.014 12.1164 100.316H7.1164H2.1164C2.1164 107.589 3.80012 114.12 7.40064 119.675L11.5964 116.956ZM7.1164 100.316H12.1164V96.732H7.1164H2.1164V100.316H7.1164ZM7.1164 96.732V101.732H23.7564V96.732V91.732H7.1164V96.732ZM23.7564 96.732H18.7564V100.316H23.7564H28.7564V96.732H23.7564ZM23.7564 100.316H18.7564C18.7564 106.782 20.8099 112.43 25.5768 116.341L28.7484 112.476L31.92 108.611C30.031 107.061 28.7564 104.602 28.7564 100.316H23.7564ZM28.7484 112.476L25.6372 116.39C30.1123 119.947 35.8577 121.444 42.3164 121.444V116.444V111.444C37.3405 111.444 34.0405 110.295 31.8596 108.562L28.7484 112.476ZM42.3164 116.444V121.444C48.6299 121.444 54.3056 120.216 58.4106 116.858L55.2444 112.988L52.0782 109.118C50.5512 110.368 47.6082 111.444 42.3164 111.444V116.444ZM55.2444 112.988L58.3538 116.904C62.4028 113.688 64.5964 109.324 64.5964 104.156H59.5964H54.5964C54.5964 106.156 53.8887 107.68 52.135 109.072L55.2444 112.988ZM59.5964 104.156H64.5964C64.5964 100.638 63.5311 97.3281 61.0555 94.7069L57.4204 98.14L53.7853 101.573C54.2111 102.024 54.5964 102.724 54.5964 104.156H59.5964ZM57.4204 98.14L61.1575 94.8182C59.0358 92.4313 56.1337 90.8105 52.9018 89.6996L51.2764 94.428L49.651 99.1564C51.8804 99.9228 53.0743 100.777 53.6834 101.462L57.4204 98.14ZM51.2764 94.428L53.0814 89.7652C50.1317 88.6233 46.632 87.6197 42.6331 86.7311L41.5484 91.612L40.4638 96.4929C44.1448 97.3109 47.1305 98.1847 49.4714 99.0908L51.2764 94.428ZM41.5484 91.612L42.6106 86.7261L39.6666 86.0861L38.6044 90.972L37.5423 95.8579L40.4863 96.4979L41.5484 91.612ZM38.6044 90.972L39.6891 86.0911C33.7992 84.7822 28.8643 83.1752 24.8277 81.3122L22.7324 85.852L20.6371 90.3918C25.4752 92.6248 31.1216 94.4311 37.5198 95.8529L38.6044 90.972ZM22.7324 85.852L24.9332 81.3624C21.2152 79.5399 18.5475 77.2803 16.7166 74.6647L12.6204 77.532L8.52425 80.3993C11.472 84.6104 15.5456 87.8975 20.5316 90.3416L22.7324 85.852ZM12.6204 77.532L16.7646 74.7346C15.1738 72.3779 14.1644 69.0041 14.1644 64.22H9.1644H4.1644C4.1644 70.3585 5.45898 75.8595 8.47616 80.3294L12.6204 77.532ZM9.1644 64.22H14.1644C14.1644 59.5613 15.2463 55.919 17.1647 53.0415L13.0044 50.268L8.84415 47.4945C5.6425 52.297 4.1644 57.956 4.1644 64.22H9.1644ZM13.0044 50.268L17.1507 53.0623C19.2215 49.9895 22.1156 47.591 26.0121 45.8907L24.0124 41.308L22.0127 36.7253C16.5226 39.121 12.078 42.6958 8.85807 47.4737L13.0044 50.268ZM24.0124 41.308L26.0507 45.8737C30.0616 44.0831 34.9298 43.108 40.7804 43.108V38.108V33.108C33.831 33.108 27.5205 34.2663 21.9741 36.7423L24.0124 41.308ZM40.7804 38.108V43.108C46.6008 43.108 51.5584 44.1155 55.7591 45.9985L57.8044 41.436L59.8497 36.8735C54.1518 34.3192 47.7601 33.108 40.7804 33.108V38.108ZM57.8044 41.436L55.8537 46.0398C60.0207 47.8054 63.1406 50.4154 65.3826 53.8802L69.5804 51.164L73.7783 48.4477C70.3882 43.2086 65.6575 39.3332 59.7551 36.8322L57.8044 41.436ZM69.5804 51.164L65.4458 53.9755C67.6537 57.2225 68.9324 61.5513 68.9324 67.292H73.9324H78.9324C78.9324 60.0621 77.3098 53.6388 73.715 48.3524L69.5804 51.164ZM73.9324 67.292H68.9324V71.132H73.9324H78.9324V67.292H73.9324ZM73.9324 71.132V66.132H57.2924V71.132V76.132H73.9324V71.132ZM57.2924 71.132H62.2924V67.292H57.2924H52.2924V71.132H57.2924ZM57.2924 67.292H62.2924C62.2924 63.2605 61.4916 59.4568 59.4047 56.3265L55.2444 59.1L51.0842 61.8735C51.7279 62.8392 52.2924 64.4968 52.2924 67.292H57.2924ZM55.2444 59.1L59.5319 56.5275C57.6355 53.3669 54.8389 51.1269 51.3857 49.817L49.6124 54.492L47.8391 59.167C49.3352 59.7345 50.2933 60.5665 50.9569 61.6725L55.2444 59.1ZM49.6124 54.492L51.5242 49.8719C48.3018 48.5385 44.6769 47.956 40.7804 47.956V52.956V57.956C43.7105 57.956 45.9736 58.3975 47.7006 59.1121L49.6124 54.492ZM40.7804 52.956V47.956C35.1818 47.956 30.0412 49.0006 26.2814 51.9825L29.3884 55.9L32.4954 59.8175C33.6849 58.8741 36.139 57.956 40.7804 57.956V52.956ZM29.3884 55.9L26.2993 51.9684C22.5777 54.8925 20.8044 59.0131 20.8044 63.708H25.8044H30.8044C30.8044 61.7469 31.4204 60.6622 32.4775 59.8316L29.3884 55.9ZM25.8044 63.708H20.8044C20.8044 66.7923 21.59 69.7405 23.415 72.2674L27.4684 69.34L31.5218 66.4125C31.1282 65.8675 30.8044 65.061 30.8044 63.708H25.8044ZM27.4684 69.34L23.5216 72.4097C25.3493 74.7595 27.8452 76.4866 30.6857 77.7491L32.7164 73.18L34.7471 68.6109C32.9796 67.8254 31.9768 66.9925 31.4152 66.2703L27.4684 69.34ZM32.7164 73.18L30.6857 77.7491C33.4123 78.9609 36.7165 79.9461 40.5008 80.757L41.5484 75.868L42.5961 70.979C39.2123 70.2539 36.6285 69.4471 34.7471 68.6109L32.7164 73.18ZM41.5484 75.868L40.4863 80.7539L43.4303 81.3939L44.4924 76.508L45.5546 71.6221L42.6106 70.9821L41.5484 75.868ZM44.4924 76.508L43.4492 81.398C49.5856 82.7071 54.7728 84.3576 59.0634 86.3078L61.1324 81.756L63.2014 77.2042C58.1053 74.8878 52.1992 73.0396 45.5356 71.618L44.4924 76.508ZM61.1324 81.756L59.0942 86.3217C63.251 88.1774 66.2335 90.5127 68.2801 93.2195L72.2684 90.204L76.2567 87.1885C73.0127 82.898 68.5711 79.6012 63.1707 77.1903L61.1324 81.756ZM72.2684 90.204L68.2801 93.2195C70.1222 95.6558 71.2364 98.9997 71.2364 103.644H76.2364H81.2364C81.2364 97.3656 79.7053 91.7495 76.2567 87.1885L72.2684 90.204ZM76.2364 103.644H71.2364C71.2364 108.197 70.0787 112.028 67.8652 115.315L72.0124 118.108L76.1596 120.901C79.5781 115.825 81.2364 110.014 81.2364 103.644H76.2364ZM72.0124 118.108L67.8522 115.334C65.701 118.561 62.5369 121.245 58.122 123.305L60.2364 127.836L62.3508 132.367C68.1759 129.649 72.8625 125.847 76.1727 120.882L72.0124 118.108ZM60.2364 127.836L58.1558 123.289C53.9151 125.23 48.6836 126.292 42.3164 126.292V131.292V136.292C49.7732 136.292 56.4883 135.05 62.317 132.383L60.2364 127.836ZM102.533 127.452L100.267 131.909L100.267 131.909L102.533 127.452ZM90.6294 79.196L94.9235 81.7574L94.9235 81.7574L90.6294 79.196ZM102.533 68.06L104.8 72.5169L104.8 72.5169L102.533 68.06ZM136.581 68.06L134.315 72.5169L134.315 72.5169L136.581 68.06ZM148.485 79.196L144.191 81.7574L144.191 81.7574L148.485 79.196ZM148.485 116.316L144.191 113.755L144.191 113.755L148.485 116.316ZM136.581 127.452L134.315 122.995L134.315 122.995L136.581 127.452ZM131.845 112.22L135.333 115.802L135.357 115.779L135.381 115.756L131.845 112.22ZM131.845 83.42L128.263 86.9081L128.31 86.9558L128.357 87.0024L131.845 83.42ZM107.269 83.42L110.757 87.0024L110.781 86.9791L110.805 86.9555L107.269 83.42ZM107.269 112.22L103.734 115.756L103.757 115.779L103.781 115.802L107.269 112.22ZM119.557 131.292V126.292C113.936 126.292 109.053 125.158 104.8 122.995L102.533 127.452L100.267 131.909C106.083 134.866 112.549 136.292 119.557 136.292V131.292ZM102.533 127.452L104.8 122.995C100.609 120.864 97.3427 117.81 94.9235 113.755L90.6294 116.316L86.3353 118.877C89.7187 124.55 94.3888 128.92 100.267 131.909L102.533 127.452ZM90.6294 116.316L94.9235 113.755C92.5708 109.81 91.2774 104.89 91.2774 98.78H86.2774H81.2774C81.2774 106.323 82.8853 113.094 86.3353 118.877L90.6294 116.316ZM86.2774 98.78H91.2774V96.732H86.2774H81.2774V98.78H86.2774ZM86.2774 96.732H91.2774C91.2774 90.6215 92.5708 85.7016 94.9235 81.7574L90.6294 79.196L86.3353 76.6346C82.8853 82.4184 81.2774 89.1892 81.2774 96.732H86.2774ZM90.6294 79.196L94.9235 81.7574C97.3427 77.7016 100.609 74.6479 104.8 72.5169L102.533 68.06L100.267 63.6031C94.3888 66.5921 89.7187 70.9624 86.3353 76.6346L90.6294 79.196ZM102.533 68.06L104.8 72.5169C109.053 70.3542 113.936 69.22 119.557 69.22V64.22V59.22C112.549 59.22 106.083 60.6457 100.267 63.6031L102.533 68.06ZM119.557 64.22V69.22C125.179 69.22 130.062 70.3542 134.315 72.5169L136.581 68.06L138.848 63.6031C133.032 60.6457 126.566 59.22 119.557 59.22V64.22ZM136.581 68.06L134.315 72.5169C138.506 74.6479 141.772 77.7016 144.191 81.7574L148.485 79.196L152.78 76.6346C149.396 70.9624 144.726 66.5921 138.848 63.6031L136.581 68.06ZM148.485 79.196L144.191 81.7574C146.544 85.7016 147.837 90.6215 147.837 96.732H152.837H157.837C157.837 89.1892 156.229 82.4184 152.78 76.6346L148.485 79.196ZM152.837 96.732H147.837V98.78H152.837H157.837V96.732H152.837ZM152.837 98.78H147.837C147.837 104.89 146.544 109.81 144.191 113.755L148.485 116.316L152.78 118.877C156.229 113.094 157.837 106.323 157.837 98.78H152.837ZM148.485 116.316L144.191 113.755C141.772 117.81 138.506 120.864 134.315 122.995L136.581 127.452L138.848 131.909C144.726 128.92 149.396 124.55 152.78 118.877L148.485 116.316ZM136.581 127.452L134.315 122.995C130.062 125.158 125.179 126.292 119.557 126.292V131.292V136.292C126.566 136.292 133.032 134.866 138.848 131.909L136.581 127.452ZM119.557 116.956V121.956C125.676 121.956 131.066 119.958 135.333 115.802L131.845 112.22L128.357 108.638C126.14 110.797 123.337 111.956 119.557 111.956V116.956ZM131.845 112.22L135.381 115.756C139.82 111.316 141.709 105.277 141.709 98.396H136.709H131.709C131.709 103.461 130.356 106.639 128.31 108.684L131.845 112.22ZM136.709 98.396H141.709V97.116H136.709H131.709V98.396H136.709ZM136.709 97.116H141.709C141.709 90.2427 139.823 84.2092 135.333 79.8376L131.845 83.42L128.357 87.0024C130.353 88.9454 131.709 92.0426 131.709 97.116H136.709ZM131.845 83.42L135.428 79.9319C131.219 75.6093 125.774 73.556 119.557 73.556V78.556V83.556C123.41 83.556 126.157 84.7454 128.263 86.9081L131.845 83.42ZM119.557 78.556V73.556C113.398 73.556 107.993 75.6251 103.734 79.8845L107.269 83.42L110.805 86.9555C113.031 84.7296 115.818 83.556 119.557 83.556V78.556ZM107.269 83.42L103.781 79.8376C99.2916 84.2092 97.4054 90.2427 97.4054 97.116H102.405H107.405C107.405 92.0426 108.762 88.9454 110.757 87.0024L107.269 83.42ZM102.405 97.116H97.4054V98.396H102.405H107.405V97.116H102.405ZM102.405 98.396H97.4054C97.4054 105.277 99.2944 111.316 103.734 115.756L107.269 112.22L110.805 108.684C108.759 106.639 107.405 103.461 107.405 98.396H102.405ZM107.269 112.22L103.781 115.802C108.049 119.958 113.439 121.956 119.557 121.956V116.956V111.956C115.777 111.956 112.975 110.797 110.757 108.638L107.269 112.22ZM167.724 129.5H162.724V134.5H167.724V129.5ZM167.724 66.012V61.012H162.724V66.012H167.724ZM183.596 66.012H188.596V61.012H183.596V66.012ZM183.596 72.924H178.596V77.924H183.596V72.924ZM185.9 72.924V77.924H188.936L190.336 75.2308L185.9 72.924ZM191.404 67.42L193.977 71.7075L194.029 71.6764L194.08 71.6441L191.404 67.42ZM212.396 67.676L209.653 71.8562L209.699 71.8866L209.746 71.916L212.396 67.676ZM218.668 74.46L214.224 76.7498L215.62 79.46H218.668V74.46ZM220.972 74.46V79.46H223.978L225.388 76.8058L220.972 74.46ZM227.116 67.676L229.921 71.8156L229.921 71.8156L227.116 67.676ZM249.004 67.548L246.627 71.9465L246.697 71.9845L246.768 72.0201L249.004 67.548ZM256.684 75.1L252.303 77.5096L252.339 77.5753L252.378 77.6399L256.684 75.1ZM259.628 129.5V134.5H264.628V129.5H259.628ZM243.5 129.5H238.5V134.5H243.5V129.5ZM240.812 81.116L237.277 84.6515L237.32 84.6946L237.364 84.7367L240.812 81.116ZM224.684 82.012L220.888 78.758L220.883 78.7638L220.878 78.7697L224.684 82.012ZM221.74 129.5V134.5H226.74V129.5H221.74ZM205.612 129.5H200.612V134.5H205.612V129.5ZM202.924 81.116L199.389 84.6515L199.432 84.6946L199.476 84.7367L202.924 81.116ZM186.796 82.012L183 78.758L182.995 78.7638L182.99 78.7697L186.796 82.012ZM183.852 129.5V134.5H188.852V129.5H183.852ZM167.724 129.5H172.724V66.012H167.724H162.724V129.5H167.724ZM167.724 66.012V71.012H183.596V66.012V61.012H167.724V66.012ZM183.596 66.012H178.596V72.924H183.596H188.596V66.012H183.596ZM183.596 72.924V77.924H185.9V72.924V67.924H183.596V72.924ZM185.9 72.924L190.336 75.2308C190.927 74.0942 192.019 72.8825 193.977 71.7075L191.404 67.42L188.832 63.1325C185.67 65.0295 183.092 67.4871 181.464 70.6172L185.9 72.924ZM191.404 67.42L194.08 71.6441C195.59 70.6876 197.936 69.988 201.516 69.988V64.988V59.988C196.734 59.988 192.339 60.9097 188.729 63.1959L191.404 67.42ZM201.516 64.988V69.988C205.426 69.988 207.995 70.7681 209.653 71.8562L212.396 67.676L215.14 63.4958C211.337 60.9999 206.652 59.988 201.516 59.988V64.988ZM212.396 67.676L209.746 71.916C211.728 73.1542 213.192 74.7473 214.224 76.7498L218.668 74.46L223.113 72.1702C221.244 68.5407 218.527 65.6111 215.046 63.436L212.396 67.676ZM218.668 74.46V79.46H220.972V74.46V69.46H218.668V74.46ZM220.972 74.46L225.388 76.8058C226.443 74.8201 227.927 73.1659 229.921 71.8156L227.116 67.676L224.312 63.5364C221.015 65.7701 218.403 68.6386 216.557 72.1142L220.972 74.46ZM227.116 67.676L229.921 71.8156C231.41 70.8066 234.028 69.988 238.38 69.988V64.988V59.988C233.005 59.988 228.113 60.9614 224.312 63.5364L227.116 67.676ZM238.38 64.988V69.988C241.555 69.988 244.267 70.6708 246.627 71.9465L249.004 67.548L251.382 63.1495C247.427 61.0119 243.056 59.988 238.38 59.988V64.988ZM249.004 67.548L246.768 72.0201C249.035 73.1533 250.877 74.9158 252.303 77.5096L256.684 75.1L261.065 72.6904C258.737 68.4575 255.46 65.1854 251.24 63.0759L249.004 67.548ZM256.684 75.1L252.378 77.6399C253.762 79.9873 254.628 83.2634 254.628 87.772H259.628H264.628C264.628 82.0406 263.532 76.8687 260.991 72.5601L256.684 75.1ZM259.628 87.772H254.628V129.5H259.628H264.628V87.772H259.628ZM259.628 129.5V124.5H243.5V129.5V134.5H259.628V129.5ZM243.5 129.5H248.5V88.924H243.5H238.5V129.5H243.5ZM243.5 88.924H248.5C248.5 84.6339 247.395 80.4808 244.261 77.4953L240.812 81.116L237.364 84.7367C237.813 85.1645 238.5 86.2168 238.5 88.924H243.5ZM240.812 81.116L244.348 77.5805C241.375 74.6078 237.441 73.428 233.26 73.428V78.428V83.428C235.565 83.428 236.666 84.0402 237.277 84.6515L240.812 81.116ZM233.26 78.428V73.428C228.4 73.428 224.048 75.0717 220.888 78.758L224.684 82.012L228.481 85.266C229.417 84.1736 230.782 83.428 233.26 83.428V78.428ZM224.684 82.012L220.878 78.7697C217.868 82.3031 216.74 86.9666 216.74 91.996H221.74H226.74C226.74 88.3214 227.575 86.3289 228.491 85.2543L224.684 82.012ZM221.74 91.996H216.74V129.5H221.74H226.74V91.996H221.74ZM221.74 129.5V124.5H205.612V129.5V134.5H221.74V129.5ZM205.612 129.5H210.612V88.924H205.612H200.612V129.5H205.612ZM205.612 88.924H210.612C210.612 84.6339 209.507 80.4808 206.373 77.4953L202.924 81.116L199.476 84.7367C199.925 85.1645 200.612 86.2168 200.612 88.924H205.612ZM202.924 81.116L206.46 77.5805C203.487 74.6078 199.553 73.428 195.372 73.428V78.428V83.428C197.677 83.428 198.778 84.0402 199.389 84.6515L202.924 81.116ZM195.372 78.428V73.428C190.512 73.428 186.16 75.0717 183 78.758L186.796 82.012L190.593 85.266C191.529 84.1736 192.894 83.428 195.372 83.428V78.428ZM186.796 82.012L182.99 78.7697C179.98 82.3031 178.852 86.9666 178.852 91.996H183.852H188.852C188.852 88.3214 189.687 86.3289 190.603 85.2543L186.796 82.012ZM183.852 91.996H178.852V129.5H183.852H188.852V91.996H183.852ZM183.852 129.5V124.5H167.724V129.5V134.5H183.852V129.5ZM289.134 127.324L286.654 131.665L286.699 131.691L286.746 131.716L289.134 127.324ZM277.87 115.932L273.461 118.289L273.485 118.335L273.51 118.38L277.87 115.932ZM277.87 79.708L282.263 82.0969L282.272 82.0809L282.28 82.0649L277.87 79.708ZM289.006 68.316L291.428 72.6905L291.458 72.674L291.487 72.6572L289.006 68.316ZM321.902 68.444L319.295 72.7104L319.324 72.7281L319.353 72.7455L321.902 68.444ZM332.654 79.964L328.213 82.2611L328.222 82.2769L328.23 82.2927L332.654 79.964ZM336.494 102.492V107.492H341.494V102.492H336.494ZM290.286 102.492V97.492H285.086L285.29 102.688L290.286 102.492ZM316.398 114.268L313.013 110.588L316.398 114.268ZM321.262 107.74L323.584 103.312L318.937 100.875L316.727 105.634L321.262 107.74ZM334.446 114.652L338.849 117.023L341.246 112.571L336.768 110.224L334.446 114.652ZM329.198 121.948L325.428 118.664L325.42 118.673L329.198 121.948ZM320.238 128.604L322.392 133.116L322.433 133.097L322.474 133.076L320.238 128.604ZM290.414 90.46L285.479 89.6566L284.535 95.46H290.414V90.46ZM320.11 90.46V95.46H325.597L325.089 89.9969L320.11 90.46ZM315.63 81.628L312.356 85.4064L312.386 85.433L312.417 85.459L315.63 81.628ZM305.902 131.292V126.292C300.304 126.292 295.557 125.125 291.523 122.932L289.134 127.324L286.746 131.716C292.44 134.814 298.872 136.292 305.902 136.292V131.292ZM289.134 127.324L291.615 122.983C287.634 120.708 284.524 117.57 282.23 113.484L277.87 115.932L273.51 118.38C276.678 124.022 281.078 128.479 286.654 131.665L289.134 127.324ZM277.87 115.932L282.28 113.575C280.088 109.475 278.902 104.51 278.902 98.524H273.902H268.902C268.902 105.85 270.362 112.491 273.461 118.289L277.87 115.932ZM273.902 98.524H278.902V96.988H273.902H268.902V98.524H273.902ZM273.902 96.988H278.902C278.902 90.9986 280.089 86.0932 282.263 82.0969L277.87 79.708L273.478 77.3191C270.361 83.0508 268.902 89.6654 268.902 96.988H273.902ZM277.87 79.708L282.28 82.0649C284.484 77.941 287.517 74.8556 291.428 72.6905L289.006 68.316L286.585 63.9415C280.939 67.0671 276.547 71.5764 273.461 77.3511L277.87 79.708ZM289.006 68.316L291.487 72.6572C295.405 70.4185 300.072 69.22 305.646 69.22V64.22V59.22C298.592 59.22 292.165 60.7522 286.526 63.9748L289.006 68.316ZM305.646 64.22V69.22C311.1 69.22 315.586 70.444 319.295 72.7104L321.902 68.444L324.51 64.1776C319.002 60.812 312.652 59.22 305.646 59.22V64.22ZM321.902 68.444L319.353 72.7455C323.122 74.9786 326.066 78.1087 328.213 82.2611L332.654 79.964L337.095 77.6669C334.123 71.9206 329.899 67.3707 324.451 64.1425L321.902 68.444ZM332.654 79.964L328.23 82.2927C330.349 86.3199 331.494 91.1683 331.494 96.988H336.494H341.494C341.494 89.837 340.079 83.3361 337.079 77.6353L332.654 79.964ZM336.494 96.988H331.494V102.492H336.494H341.494V96.988H336.494ZM336.494 102.492V97.492H290.286V102.492V107.492H336.494V102.492ZM290.286 102.492L285.29 102.688C285.511 108.308 287.674 113.16 291.829 116.853L295.15 113.116L298.472 109.379C296.482 107.61 295.403 105.38 295.283 102.296L290.286 102.492ZM295.15 113.116L291.829 116.853C295.892 120.465 300.858 122.212 306.414 122.212V117.212V112.212C303.096 112.212 300.553 111.228 298.472 109.379L295.15 113.116ZM306.414 117.212V122.212C311.516 122.212 316.329 121.126 319.784 117.948L316.398 114.268L313.013 110.588C312.202 111.335 310.358 112.212 306.414 112.212V117.212ZM316.398 114.268L319.784 117.948C322.351 115.586 324.385 112.887 325.797 109.846L321.262 107.74L316.727 105.634C315.921 107.372 314.712 109.025 313.013 110.588L316.398 114.268ZM321.262 107.74L318.941 112.168L332.125 119.08L334.446 114.652L336.768 110.224L323.584 103.312L321.262 107.74ZM334.446 114.652L330.044 112.281C329.079 114.074 327.575 116.199 325.428 118.664L329.198 121.948L332.969 125.232C335.429 122.407 337.425 119.667 338.849 117.023L334.446 114.652ZM329.198 121.948L325.42 118.673C323.721 120.633 321.305 122.48 318.002 124.132L320.238 128.604L322.474 133.076C326.681 130.973 330.238 128.383 332.977 125.223L329.198 121.948ZM320.238 128.604L318.085 124.092C315.214 125.462 311.236 126.292 305.902 126.292V131.292V136.292C312.174 136.292 317.754 135.33 322.392 133.116L320.238 128.604ZM290.414 90.46V95.46H320.11V90.46V85.46H290.414V90.46ZM320.11 90.46L325.089 89.9969C324.635 85.114 322.571 80.923 318.843 77.797L315.63 81.628L312.417 85.459C313.981 86.7703 314.903 88.4674 315.132 90.9231L320.11 90.46ZM315.63 81.628L318.905 77.8496C315.237 74.6704 310.61 73.3 305.518 73.3V78.3V83.3C308.789 83.3 310.904 84.1482 312.356 85.4064L315.63 81.628ZM305.518 78.3V73.3C300.314 73.3 295.579 74.6401 291.876 77.8496L295.15 81.628L298.425 85.4064C299.842 84.1785 302.018 83.3 305.518 83.3V78.3ZM295.15 81.628L291.876 77.8496C288.343 80.9113 286.245 84.9523 285.479 89.6566L290.414 90.46L295.349 91.2634C295.778 88.629 296.838 86.782 298.425 85.4064L295.15 81.628ZM362.929 125.66L359.336 129.137L359.393 129.196L359.452 129.253L362.929 125.66ZM359.089 79.324H364.089V74.324H359.089V79.324ZM343.217 79.324H338.217V84.324H343.217V79.324ZM343.217 66.012V61.012H338.217V66.012H343.217ZM359.089 66.012V71.012H364.089V66.012H359.089ZM359.089 46.3V41.3H354.089V46.3H359.089ZM375.217 46.3H380.217V41.3H375.217V46.3ZM375.217 66.012H370.217V71.012H375.217V66.012ZM392.625 66.012H397.625V61.012H392.625V66.012ZM392.625 79.324V84.324H397.625V79.324H392.625ZM375.217 79.324V74.324H370.217V79.324H375.217ZM391.089 116.188H396.089V111.188H391.089V116.188ZM391.089 129.5V134.5H396.089V129.5H391.089ZM373.169 129.5V124.5C370.095 124.5 367.991 123.6 366.407 122.067L362.929 125.66L359.452 129.253C363.159 132.84 367.881 134.5 373.169 134.5V129.5ZM362.929 125.66L366.522 122.183C365.027 120.637 364.089 118.471 364.089 115.164H359.089H354.089C354.089 120.561 355.712 125.392 359.336 129.137L362.929 125.66ZM359.089 115.164H364.089V79.324H359.089H354.089V115.164H359.089ZM359.089 79.324V74.324H343.217V79.324V84.324H359.089V79.324ZM343.217 79.324H348.217V66.012H343.217H338.217V79.324H343.217ZM343.217 66.012V71.012H359.089V66.012V61.012H343.217V66.012ZM359.089 66.012H364.089V46.3H359.089H354.089V66.012H359.089ZM359.089 46.3V51.3H375.217V46.3V41.3H359.089V46.3ZM375.217 46.3H370.217V66.012H375.217H380.217V46.3H375.217ZM375.217 66.012V71.012H392.625V66.012V61.012H375.217V66.012ZM392.625 66.012H387.625V79.324H392.625H397.625V66.012H392.625ZM392.625 79.324V74.324H375.217V79.324V84.324H392.625V79.324ZM375.217 79.324H370.217V112.348H375.217H380.217V79.324H375.217ZM375.217 112.348H370.217C370.217 114.316 370.67 116.723 372.458 118.64C374.307 120.621 376.744 121.188 378.801 121.188V116.188V111.188C378.637 111.188 378.705 111.164 378.915 111.239C379.152 111.324 379.476 111.503 379.769 111.816C380.362 112.453 380.217 112.94 380.217 112.348H375.217ZM378.801 116.188V121.188H391.089V116.188V111.188H378.801V116.188ZM391.089 116.188H386.089V129.5H391.089H396.089V116.188H391.089ZM391.089 129.5V124.5H373.169V129.5V134.5H391.089V129.5ZM407.224 129.5H402.224V134.5H407.224V129.5ZM407.224 39.9V34.9H402.224V39.9H407.224ZM423.352 39.9H428.352V34.9H423.352V39.9ZM423.352 73.82H418.352V78.82H423.352V73.82ZM425.656 73.82V78.82H428.747L430.129 76.0561L425.656 73.82ZM428.856 69.724L432.283 73.365L432.283 73.365L428.856 69.724ZM434.616 66.396L436.298 71.1047L436.344 71.0883L436.39 71.071L434.616 66.396ZM456.888 68.444L454.23 72.6784L454.287 72.7143L454.345 72.7486L456.888 68.444ZM465.592 77.788L461.139 80.0619L461.149 80.0814L461.159 80.1008L465.592 77.788ZM468.664 129.5V134.5H473.664V129.5H468.664ZM452.536 129.5H447.536V134.5H452.536V129.5ZM448.952 82.14L445.353 85.6107L445.385 85.6434L445.417 85.6755L448.952 82.14ZM427.448 83.548L431.273 86.7687L431.294 86.7443L431.314 86.7196L427.448 83.548ZM423.352 129.5V134.5H428.352V129.5H423.352ZM407.224 129.5H412.224V39.9H407.224H402.224V129.5H407.224ZM407.224 39.9V44.9H423.352V39.9V34.9H407.224V39.9ZM423.352 39.9H418.352V73.82H423.352H428.352V39.9H423.352ZM423.352 73.82V78.82H425.656V73.82V68.82H423.352V73.82ZM425.656 73.82L430.129 76.0561C430.482 75.35 431.137 74.4436 432.283 73.365L428.856 69.724L425.43 66.083C423.674 67.7351 422.197 69.5594 421.184 71.5839L425.656 73.82ZM428.856 69.724L432.283 73.365C433.115 72.5823 434.387 71.7873 436.298 71.1047L434.616 66.396L432.935 61.6873C430.067 62.7114 427.499 64.135 425.43 66.083L428.856 69.724ZM434.616 66.396L436.39 71.071C438.114 70.4168 440.578 69.988 443.96 69.988V64.988V59.988C439.833 59.988 436.068 60.4978 432.843 61.721L434.616 66.396ZM443.96 64.988V69.988C448.106 69.988 451.465 70.9429 454.23 72.6784L456.888 68.444L459.547 64.2095C454.973 61.3371 449.713 59.988 443.96 59.988V64.988ZM456.888 68.444L454.345 72.7486C457.256 74.4688 459.508 76.8664 461.139 80.0619L465.592 77.788L470.045 75.5141C467.581 70.6882 464.03 66.8566 459.432 64.1394L456.888 68.444ZM465.592 77.788L461.159 80.1008C462.769 83.1855 463.664 86.9706 463.664 91.612H468.664H473.664C473.664 85.6721 472.512 80.2411 470.025 75.4752L465.592 77.788ZM468.664 91.612H463.664V129.5H468.664H473.664V91.612H468.664ZM468.664 129.5V124.5H452.536V129.5V134.5H468.664V129.5ZM452.536 129.5H457.536V92.892H452.536H447.536V129.5H452.536ZM452.536 92.892H457.536C457.536 87.3426 456.146 82.2622 452.488 78.6045L448.952 82.14L445.417 85.6755C446.538 86.7965 447.536 88.8841 447.536 92.892H452.536ZM448.952 82.14L452.552 78.6693C449.037 75.025 444.237 73.556 438.968 73.556V78.556V83.556C442.404 83.556 444.259 84.4764 445.353 85.6107L448.952 82.14ZM438.968 78.556V73.556C432.773 73.556 427.412 75.7098 423.583 80.3764L427.448 83.548L431.314 86.7196C432.946 84.7302 435.265 83.556 438.968 83.556V78.556ZM427.448 83.548L423.624 80.3273C419.885 84.7673 418.352 90.6326 418.352 97.244H423.352H428.352C428.352 92.0794 429.551 88.8141 431.273 86.7687L427.448 83.548ZM423.352 97.244H418.352V129.5H423.352H428.352V97.244H423.352ZM423.352 129.5V124.5H407.224V129.5V134.5H423.352V129.5ZM486.099 129.5H481.099V134.5H486.099V129.5ZM486.099 66.012V61.012H481.099V66.012H486.099ZM502.227 66.012H507.227V61.012H502.227V66.012ZM502.227 129.5V134.5H507.227V129.5H502.227ZM486.739 55.772L483.283 59.3852L483.322 59.4219L483.361 59.4578L486.739 55.772ZM486.739 40.924L483.361 37.2382L483.322 37.2741L483.283 37.3108L486.739 40.924ZM486.099 129.5H491.099V66.012H486.099H481.099V129.5H486.099ZM486.099 66.012V71.012H502.227V66.012V61.012H486.099V66.012ZM502.227 66.012H497.227V129.5H502.227H507.227V66.012H502.227ZM502.227 129.5V124.5H486.099V129.5V134.5H502.227V129.5ZM494.163 58.588V53.588C492.452 53.588 491.2 53.078 490.118 52.0862L486.739 55.772L483.361 59.4578C486.375 62.2207 490.072 63.588 494.163 63.588V58.588ZM486.739 55.772L490.196 52.1588C489.352 51.3523 488.795 50.2517 488.795 48.348H483.795H478.795C478.795 52.5883 480.201 56.437 483.283 59.3852L486.739 55.772ZM483.795 48.348H488.795C488.795 46.4443 489.352 45.3437 490.196 44.5372L486.739 40.924L483.283 37.3108C480.201 40.259 478.795 44.1077 478.795 48.348H483.795ZM486.739 40.924L490.118 44.6098C491.2 43.618 492.452 43.108 494.163 43.108V38.108V33.108C490.072 33.108 486.375 34.4753 483.361 37.2382L486.739 40.924ZM494.163 38.108V43.108C496.002 43.108 497.196 43.6422 498.131 44.5372L501.587 40.924L505.044 37.3108C502.054 34.4511 498.298 33.108 494.163 33.108V38.108ZM501.587 40.924L498.131 44.5372C498.974 45.3437 499.531 46.4443 499.531 48.348H504.531H509.531C509.531 44.1077 508.126 40.259 505.044 37.3108L501.587 40.924ZM504.531 48.348H499.531C499.531 50.2517 498.974 51.3523 498.131 52.1588L501.587 55.772L505.044 59.3852C508.126 56.437 509.531 52.5883 509.531 48.348H504.531ZM501.587 55.772L498.131 52.1588C497.196 53.0538 496.002 53.588 494.163 53.588V58.588V63.588C498.298 63.588 502.054 62.2449 505.044 59.3852L501.587 55.772ZM520.099 129.5H515.099V134.5H520.099V129.5ZM520.099 66.012V61.012H515.099V66.012H520.099ZM535.971 66.012H540.971V61.012H535.971V66.012ZM535.971 74.332H530.971V79.332H535.971V74.332ZM538.275 74.332V79.332H541.475L542.815 76.4273L538.275 74.332ZM544.035 68.06L546.894 72.162L546.936 72.1332L546.976 72.1037L544.035 68.06ZM569.763 68.444L567.105 72.6784L567.162 72.7143L567.22 72.7486L569.763 68.444ZM578.467 77.788L574.014 80.0619L574.024 80.0814L574.034 80.1008L578.467 77.788ZM581.539 129.5V134.5H586.539V129.5H581.539ZM565.411 129.5H560.411V134.5H565.411V129.5ZM561.827 82.14L558.228 85.6107L558.26 85.6434L558.292 85.6755L561.827 82.14ZM540.323 83.548L544.148 86.7687L544.169 86.7443L544.189 86.7196L540.323 83.548ZM536.227 129.5V134.5H541.227V129.5H536.227ZM520.099 129.5H525.099V66.012H520.099H515.099V129.5H520.099ZM520.099 66.012V71.012H535.971V66.012V61.012H520.099V66.012ZM535.971 66.012H530.971V74.332H535.971H540.971V66.012H535.971ZM535.971 74.332V79.332H538.275V74.332V69.332H535.971V74.332ZM538.275 74.332L542.815 76.4273C543.346 75.2768 544.527 73.8121 546.894 72.162L544.035 68.06L541.176 63.958C537.912 66.2332 535.253 68.9498 533.736 72.2367L538.275 74.332ZM544.035 68.06L546.976 72.1037C548.545 70.9626 551.556 69.988 556.835 69.988V64.988V59.988C550.681 59.988 545.158 61.0614 541.095 64.0163L544.035 68.06ZM556.835 64.988V69.988C560.981 69.988 564.34 70.9429 567.105 72.6784L569.763 68.444L572.422 64.2095C567.848 61.3371 562.588 59.988 556.835 59.988V64.988ZM569.763 68.444L567.22 72.7486C570.131 74.4688 572.383 76.8664 574.014 80.0619L578.467 77.788L582.92 75.5141C580.456 70.6882 576.905 66.8566 572.307 64.1394L569.763 68.444ZM578.467 77.788L574.034 80.1008C575.644 83.1855 576.539 86.9706 576.539 91.612H581.539H586.539C586.539 85.6721 585.387 80.2411 582.9 75.4752L578.467 77.788ZM581.539 91.612H576.539V129.5H581.539H586.539V91.612H581.539ZM581.539 129.5V124.5H565.411V129.5V134.5H581.539V129.5ZM565.411 129.5H570.411V92.892H565.411H560.411V129.5H565.411ZM565.411 92.892H570.411C570.411 87.3426 569.021 82.2622 565.363 78.6045L561.827 82.14L558.292 85.6755C559.413 86.7965 560.411 88.8841 560.411 92.892H565.411ZM561.827 82.14L565.427 78.6693C561.912 75.025 557.112 73.556 551.843 73.556V78.556V83.556C555.279 83.556 557.134 84.4764 558.228 85.6107L561.827 82.14ZM551.843 78.556V73.556C545.648 73.556 540.287 75.7098 536.458 80.3764L540.323 83.548L544.189 86.7196C545.821 84.7302 548.14 83.556 551.843 83.556V78.556ZM540.323 83.548L536.499 80.3273C532.76 84.7673 531.227 90.6326 531.227 97.244H536.227H541.227C541.227 92.0794 542.426 88.8141 544.148 86.7687L540.323 83.548ZM536.227 97.244H531.227V129.5H536.227H541.227V97.244H536.227ZM536.227 129.5V124.5H520.099V129.5V134.5H536.227V129.5ZM599.87 78.94L604.226 81.3951L604.236 81.3784L604.245 81.3616L599.87 78.94ZM610.366 68.06L612.838 72.4064L612.851 72.3987L612.865 72.3909L610.366 68.06ZM638.014 67.292L640.842 63.1684L640.842 63.1684L638.014 67.292ZM644.542 73.692L640.284 76.3125L641.748 78.692H644.542V73.692ZM646.846 73.692V78.692H651.846V73.692H646.846ZM646.846 66.012V61.012H641.846V66.012H646.846ZM662.718 66.012H667.718V61.012H662.718V66.012ZM658.878 151.132L655.343 147.596L655.314 147.625L655.285 147.655L658.878 151.132ZM606.142 155.1H601.142V160.1H606.142V155.1ZM606.142 141.02V136.02H601.142V141.02H606.142ZM646.59 120.668H651.59V115.668H646.59V120.668ZM644.286 120.668V115.668H641.515L640.046 118.018L644.286 120.668ZM640.702 124.892L644.024 128.629L644.081 128.579L644.136 128.527L640.702 124.892ZM634.558 128.348L636.28 133.042L634.558 128.348ZM610.366 126.044L607.831 130.354L607.881 130.383L607.931 130.411L610.366 126.044ZM599.87 115.164L595.496 117.586L595.505 117.602L595.515 117.619L599.87 115.164ZM641.854 110.94L638.413 107.313L638.413 107.313L641.854 110.94ZM641.854 83.036L638.366 86.6184L638.414 86.6648L638.463 86.71L641.854 83.036ZM617.022 83.036L620.414 86.71L620.439 86.6868L620.464 86.6633L617.022 83.036ZM617.022 110.94L620.464 107.313L620.464 107.313L617.022 110.94ZM595.902 98.012H600.902V95.964H595.902H590.902V98.012H595.902ZM595.902 95.964H600.902C600.902 89.9677 602.092 85.1819 604.226 81.3951L599.87 78.94L595.515 76.4849C592.358 82.0847 590.902 88.6483 590.902 95.964H595.902ZM599.87 78.94L604.245 81.3616C606.487 77.3115 609.357 74.3857 612.838 72.4064L610.366 68.06L607.895 63.7135C602.672 66.6836 598.545 71.0111 595.496 76.5184L599.87 78.94ZM610.366 68.06L612.865 72.3909C616.53 70.2766 620.487 69.22 624.83 69.22V64.22V59.22C618.763 59.22 613.078 60.7234 607.868 63.7291L610.366 68.06ZM624.83 64.22V69.22C630.181 69.22 633.397 70.1883 635.187 71.4156L638.014 67.292L640.842 63.1684C636.659 60.2997 631.085 59.22 624.83 59.22V64.22ZM638.014 67.292L635.187 71.4156C637.807 73.2124 639.399 74.8739 640.284 76.3125L644.542 73.692L648.801 71.0715C646.955 68.0728 644.195 65.4676 640.842 63.1684L638.014 67.292ZM644.542 73.692V78.692H646.846V73.692V68.692H644.542V73.692ZM646.846 73.692H651.846V66.012H646.846H641.846V73.692H646.846ZM646.846 66.012V71.012H662.718V66.012V61.012H646.846V66.012ZM662.718 66.012H657.718V140.764H662.718H667.718V66.012H662.718ZM662.718 140.764H657.718C657.718 144.077 656.78 146.159 655.343 147.596L658.878 151.132L662.414 154.668C666.097 150.985 667.718 146.155 667.718 140.764H662.718ZM658.878 151.132L655.285 147.655C653.819 149.17 651.785 150.1 648.638 150.1V155.1V160.1C654.025 160.1 658.818 158.384 662.471 154.609L658.878 151.132ZM648.638 155.1V150.1H606.142V155.1V160.1H648.638V155.1ZM606.142 155.1H611.142V141.02H606.142H601.142V155.1H606.142ZM606.142 141.02V146.02H643.006V141.02V136.02H606.142V141.02ZM643.006 141.02V146.02C645.064 146.02 647.501 145.453 649.35 143.472C651.138 141.555 651.59 139.148 651.59 137.18H646.59H641.59C641.59 137.772 641.445 137.285 642.039 136.648C642.332 136.335 642.655 136.156 642.893 136.071C643.102 135.996 643.171 136.02 643.006 136.02V141.02ZM646.59 137.18H651.59V120.668H646.59H641.59V137.18H646.59ZM646.59 120.668V115.668H644.286V120.668V125.668H646.59V120.668ZM644.286 120.668L640.046 118.018C639.477 118.93 638.586 120.014 637.269 121.257L640.702 124.892L644.136 128.527C645.891 126.869 647.39 125.137 648.526 123.318L644.286 120.668ZM640.702 124.892L637.381 121.155C636.439 121.992 634.99 122.864 632.837 123.654L634.558 128.348L636.28 133.042C639.247 131.954 641.894 130.523 644.024 128.629L640.702 124.892ZM634.558 128.348L632.837 123.654C631.013 124.322 628.405 124.756 624.83 124.756V129.756V134.756C629.107 134.756 632.983 134.251 636.28 133.042L634.558 128.348ZM624.83 129.756V124.756C620.456 124.756 616.476 123.726 612.802 121.677L610.366 126.044L607.931 130.411C613.132 133.311 618.794 134.756 624.83 134.756V129.756ZM610.366 126.044L612.902 121.734C609.36 119.651 606.469 116.688 604.226 112.709L599.87 115.164L595.515 117.619C598.563 123.027 602.668 127.317 607.831 130.354L610.366 126.044ZM599.87 115.164L604.245 112.742C602.09 108.851 600.902 104.005 600.902 98.012H595.902H590.902C590.902 105.331 592.36 111.92 595.496 117.586L599.87 115.164ZM629.438 115.676V120.676C635.558 120.676 640.961 118.679 645.296 114.567L641.854 110.94L638.413 107.313C636.091 109.515 633.218 110.676 629.438 110.676V115.676ZM641.854 110.94L645.296 114.567C649.853 110.244 651.846 104.357 651.846 97.628H646.846H641.846C641.846 102.334 640.512 105.322 638.413 107.313L641.854 110.94ZM646.846 97.628H651.846V96.348H646.846H641.846V97.628H646.846ZM646.846 96.348H651.846C651.846 89.5662 649.87 83.6302 645.246 79.362L641.854 83.036L638.463 86.71C640.495 88.5858 641.846 91.5245 641.846 96.348H646.846ZM641.854 83.036L645.342 79.4536C641.058 75.2817 635.616 73.3 629.438 73.3V78.3V83.3C633.33 83.3 636.166 84.4757 638.366 86.6184L641.854 83.036ZM629.438 78.3V73.3C623.319 73.3 617.915 75.2966 613.581 79.4087L617.022 83.036L620.464 86.6633C622.785 84.4607 625.659 83.3 629.438 83.3V78.3ZM617.022 83.036L613.631 79.362C609.007 83.6302 607.03 89.5662 607.03 96.348H612.03H617.03C617.03 91.5245 618.382 88.5858 620.414 86.71L617.022 83.036ZM612.03 96.348H607.03V97.628H612.03H617.03V96.348H612.03ZM612.03 97.628H607.03C607.03 104.357 609.024 110.244 613.581 114.567L617.022 110.94L620.464 107.313C618.365 105.322 617.03 102.334 617.03 97.628H612.03ZM617.022 110.94L613.581 114.567C617.915 118.679 623.319 120.676 629.438 120.676V115.676V110.676C625.659 110.676 622.785 109.515 620.464 107.313L617.022 110.94Z" fill="white" mask="url(#path-3-outside-2_270_55)"/>
</svg>
