<svg width="512" height="512" viewBox="0 0 512 512" fill="none" xmlns="http://www.w3.org/2000/svg">
<g filter="url(#filter0_i_59_19)">
<rect width="512" height="512" fill="#131313"/>
<g filter="url(#filter1_d_59_19)">
<path d="M124.688 205V321" stroke="white" stroke-opacity="0.5" stroke-width="10" stroke-linecap="round" stroke-linejoin="round"/>
<path d="M268.688 205V321" stroke="white" stroke-opacity="0.5" stroke-width="10" stroke-linecap="round" stroke-linejoin="round"/>
<path d="M282.188 321C282.188 321 301.188 321 327.688 321C354.188 321 390.188 297 387.688 252C385.188 207 347.688 191 324.688 191C301.688 191 268.188 191 268.188 191" stroke="white" stroke-opacity="0.5" stroke-width="10" stroke-linecap="round" stroke-linejoin="round"/>
<path d="M138.188 275.5C138.188 275.5 152.188 275.5 170.188 275.5C188.188 275.5 220.688 268.5 220.688 234C220.688 199.5 194.188 191 168.188 191C142.188 191 124.188 191 124.188 191" stroke="white" stroke-opacity="0.5" stroke-width="10" stroke-linecap="round" stroke-linejoin="round"/>
<path d="M220.688 321L195.688 287" stroke="white" stroke-opacity="0.5" stroke-width="10" stroke-linecap="round" stroke-linejoin="round"/>
</g>
</g>
<defs>
<filter id="filter0_i_59_19" x="0" y="0" width="512" height="516" filterUnits="userSpaceOnUse" color-interpolation-filters="sRGB">
<feFlood flood-opacity="0" result="BackgroundImageFix"/>
<feBlend mode="normal" in="SourceGraphic" in2="BackgroundImageFix" result="shape"/>
<feColorMatrix in="SourceAlpha" type="matrix" values="0 0 0 0 0 0 0 0 0 0 0 0 0 0 0 0 0 0 127 0" result="hardAlpha"/>
<feMorphology radius="50" operator="erode" in="SourceAlpha" result="effect1_innerShadow_59_19"/>
<feOffset dy="4"/>
<feGaussianBlur stdDeviation="100"/>
<feComposite in2="hardAlpha" operator="arithmetic" k2="-1" k3="1"/>
<feColorMatrix type="matrix" values="0 0 0 0 0 0 0 0 0 0 0 0 0 0 0 0 0 0 0.25 0"/>
<feBlend mode="normal" in2="shape" result="effect1_innerShadow_59_19"/>
</filter>
<filter id="filter1_d_59_19" x="109.188" y="176" width="293.625" height="160" filterUnits="userSpaceOnUse" color-interpolation-filters="sRGB">
<feFlood flood-opacity="0" result="BackgroundImageFix"/>
<feColorMatrix in="SourceAlpha" type="matrix" values="0 0 0 0 0 0 0 0 0 0 0 0 0 0 0 0 0 0 127 0" result="hardAlpha"/>
<feOffset/>
<feGaussianBlur stdDeviation="5"/>
<feComposite in2="hardAlpha" operator="out"/>
<feColorMatrix type="matrix" values="0 0 0 0 0 0 0 0 0 0 0 0 0 0 0 0 0 0 0.25 0"/>
<feBlend mode="normal" in2="BackgroundImageFix" result="effect1_dropShadow_59_19"/>
<feBlend mode="normal" in="SourceGraphic" in2="effect1_dropShadow_59_19" result="shape"/>
</filter>
</defs>
</svg>
